<mxfile host="app.diagrams.net" modified="2023-07-14T23:28:48.038Z" agent="Mozilla/5.0 (Windows NT 10.0; Win64; x64) AppleWebKit/537.36 (KHTML, like Gecko) Chrome/113.0.0.0 Safari/537.36" version="21.6.2" etag="8E9qeSTXh-ExF6o6Xo7b" type="github">
  <diagram name="PÃ¡gina-1" id="6IyS_oH1AUj_PFOnjPTl">
    <mxGraphModel>
      <root>
        <mxCell id="0" />
        <mxCell id="1" parent="0" />
      </root>
    </mxGraphModel>
  </diagram>
</mxfile>
